M48
; DRILL file KiCad 10.0.4 date 2026-07-23T18:24:19
; FORMAT={-:-/ absolute / metric / decimal}
; #@! TF.CreationDate,2026-07-23T18:24:19+03:00
; #@! TF.GenerationSoftware,Kicad,Pcbnew,10.0.4
; #@! TF.FileFunction,Plated,1,2,PTH
FMAT,2
METRIC
; #@! TA.AperFunction,Plated,PTH,ViaDrill
T1C0.300
; #@! TA.AperFunction,Plated,PTH,ComponentDrill
T2C0.800
; #@! TA.AperFunction,Plated,PTH,ComponentDrill
T3C1.000
; #@! TA.AperFunction,Plated,PTH,ComponentDrill
T4C1.020
%
G90
G05
T1
X102.75Y-129.5
X104.75Y-129.5
X135.75Y-93.25
X138.25Y-93.25
T2
X97.44Y-129.5
X98.71Y-129.5
X99.5Y-81.67
X99.5Y-91.83
X99.5Y-95.75
X99.5Y-105.91
X99.5Y-109.42
X99.5Y-119.58
X99.98Y-129.5
X101.25Y-129.5
X136.17Y-109.25
X136.88Y-95.25
X139.42Y-95.25
X141.96Y-95.25
X144.5Y-95.25
X146.33Y-109.25
T3
X137.94Y-76.75
X140.48Y-76.75
X143.02Y-76.75
X145.56Y-76.75
T4
X105.736Y-78.725
X105.736Y-81.265
X105.736Y-83.805
X105.736Y-86.345
X105.736Y-88.885
X105.736Y-91.425
X105.736Y-93.965
X105.736Y-96.505
X105.736Y-99.045
X105.736Y-101.585
X105.736Y-104.125
X105.736Y-106.665
X105.736Y-109.205
X105.736Y-111.745
X105.736Y-114.285
X105.736Y-116.825
X105.736Y-119.365
X105.736Y-121.905
X105.736Y-124.445
X105.736Y-126.985
X105.736Y-129.525
X105.736Y-132.065
X128.596Y-78.725
X128.596Y-81.265
X128.596Y-83.805
X128.596Y-86.345
X128.596Y-88.885
X128.596Y-91.425
X128.596Y-93.965
X128.596Y-96.505
X128.596Y-99.045
X128.596Y-101.585
X128.596Y-104.125
X128.596Y-106.665
X128.596Y-109.205
X128.596Y-111.745
X128.596Y-114.285
X128.596Y-116.825
X128.596Y-119.365
X128.596Y-121.905
X128.596Y-124.445
X128.596Y-126.985
X128.596Y-129.525
X128.596Y-132.065
M30
