%TF.GenerationSoftware,KiCad,Pcbnew,10.0.4*%
%TF.CreationDate,2026-07-23T18:24:21+03:00*%
%TF.ProjectId,plant-tracker,706c616e-742d-4747-9261-636b65722e6b,rev?*%
%TF.SameCoordinates,Original*%
%TF.FileFunction,Copper,L1,Top*%
%TF.FilePolarity,Positive*%
%FSLAX46Y46*%
G04 Gerber Fmt 4.6, Leading zero omitted, Abs format (unit mm)*
G04 Created by KiCad (PCBNEW 10.0.4) date 2026-07-23 18:24:21*
%MOMM*%
%LPD*%
G01*
G04 APERTURE LIST*
%TA.AperFunction,ComponentPad*%
%ADD10O,1.070000X1.800000*%
%TD*%
%TA.AperFunction,ComponentPad*%
%ADD11R,1.070000X1.800000*%
%TD*%
%TA.AperFunction,ComponentPad*%
%ADD12R,1.530000X1.530000*%
%TD*%
%TA.AperFunction,ComponentPad*%
%ADD13C,1.530000*%
%TD*%
%TA.AperFunction,ComponentPad*%
%ADD14C,1.600000*%
%TD*%
%TA.AperFunction,ComponentPad*%
%ADD15R,1.700000X1.700000*%
%TD*%
%TA.AperFunction,ComponentPad*%
%ADD16C,1.700000*%
%TD*%
%TA.AperFunction,ComponentPad*%
%ADD17R,1.500000X1.500000*%
%TD*%
%TA.AperFunction,ComponentPad*%
%ADD18C,1.500000*%
%TD*%
%TA.AperFunction,ViaPad*%
%ADD19C,0.600000*%
%TD*%
%TA.AperFunction,Conductor*%
%ADD20C,0.200000*%
%TD*%
%TA.AperFunction,Conductor*%
%ADD21C,0.750000*%
%TD*%
G04 APERTURE END LIST*
D10*
%TO.P,ARGB,4,BK_4*%
%TO.N,Net-(D1-BK)*%
X97440000Y-129500000D03*
%TO.P,ARGB,3,GK_3*%
%TO.N,Net-(D1-GK)*%
X98710000Y-129500000D03*
%TO.P,ARGB,2,RK_2*%
%TO.N,Net-(D1-RK)*%
X99980000Y-129500000D03*
D11*
%TO.P,ARGB,1,A_1*%
%TO.N,5V*%
X101250000Y-129500000D03*
%TD*%
D12*
%TO.P,ESP32S3,J1_1,3V3_J1_1*%
%TO.N,3.3V*%
X105736000Y-78725000D03*
D13*
%TO.P,ESP32S3,J1_2,3V3_J1_2*%
X105736000Y-81265000D03*
%TO.P,ESP32S3,J1_3,RST_J1_3*%
%TO.N,unconnected-(U1-RST-PadJ1_3)*%
X105736000Y-83805000D03*
%TO.P,ESP32S3,J1_4,GPIO4_J1_4*%
%TO.N,unconnected-(U1-GPIO4-PadJ1_4)*%
X105736000Y-86345000D03*
%TO.P,ESP32S3,J1_5,GPIO5_J1_5*%
%TO.N,G5*%
X105736000Y-88885000D03*
%TO.P,ESP32S3,J1_6,GPIO6_J1_6*%
%TO.N,G6*%
X105736000Y-91425000D03*
%TO.P,ESP32S3,J1_7,GPIO7_J1_7*%
%TO.N,G7*%
X105736000Y-93965000D03*
%TO.P,ESP32S3,J1_8,GPIO15_J1_8*%
%TO.N,unconnected-(U1-GPIO15-PadJ1_8)*%
X105736000Y-96505000D03*
%TO.P,ESP32S3,J1_9,GPIO16_J1_9*%
%TO.N,unconnected-(U1-GPIO16-PadJ1_9)*%
X105736000Y-99045000D03*
%TO.P,ESP32S3,J1_10,GPIO17_J1_10*%
%TO.N,unconnected-(U1-GPIO17-PadJ1_10)*%
X105736000Y-101585000D03*
%TO.P,ESP32S3,J1_11,GPIO18_J1_11*%
%TO.N,unconnected-(U1-GPIO18-PadJ1_11)*%
X105736000Y-104125000D03*
%TO.P,ESP32S3,J1_12,GPIO8_J1_12*%
%TO.N,G8*%
X105736000Y-106665000D03*
%TO.P,ESP32S3,J1_13,GPIO3_J1_13*%
%TO.N,unconnected-(U1-GPIO3-PadJ1_13)*%
X105736000Y-109205000D03*
%TO.P,ESP32S3,J1_14,GPIO46_J1_14*%
%TO.N,unconnected-(U1-GPIO46-PadJ1_14)*%
X105736000Y-111745000D03*
%TO.P,ESP32S3,J1_15,GPIO9_J1_15*%
%TO.N,unconnected-(U1-GPIO9-PadJ1_15)*%
X105736000Y-114285000D03*
%TO.P,ESP32S3,J1_16,GPIO10_J1_16*%
%TO.N,unconnected-(U1-GPIO10-PadJ1_16)*%
X105736000Y-116825000D03*
%TO.P,ESP32S3,J1_17,GPIO11_J1_17*%
%TO.N,unconnected-(U1-GPIO11-PadJ1_17)*%
X105736000Y-119365000D03*
%TO.P,ESP32S3,J1_18,GPIO12_J1_18*%
%TO.N,unconnected-(U1-GPIO12-PadJ1_18)*%
X105736000Y-121905000D03*
%TO.P,ESP32S3,J1_19,GPIO13_J1_19*%
%TO.N,unconnected-(U1-GPIO13-PadJ1_19)*%
X105736000Y-124445000D03*
%TO.P,ESP32S3,J1_20,GPIO14_J1_20*%
%TO.N,unconnected-(U1-GPIO14-PadJ1_20)*%
X105736000Y-126985000D03*
%TO.P,ESP32S3,J1_21,5V0_J1_21*%
%TO.N,5V*%
X105736000Y-129525000D03*
%TO.P,ESP32S3,J1_22,GND_J1_22*%
%TO.N,GND*%
X105736000Y-132065000D03*
%TO.P,ESP32S3,J3_1,GND_J3_1*%
X128596000Y-78725000D03*
%TO.P,ESP32S3,J3_2,U0TXD/GPIO43_J3_2*%
%TO.N,unconnected-(U1-U0TXD{slash}GPIO43-PadJ3_2)*%
X128596000Y-81265000D03*
%TO.P,ESP32S3,J3_3,U0RXD/GPIO44_J3_3*%
%TO.N,unconnected-(U1-U0RXD{slash}GPIO44-PadJ3_3)*%
X128596000Y-83805000D03*
%TO.P,ESP32S3,J3_4,GPIO1_J3_4*%
%TO.N,G1*%
X128596000Y-86345000D03*
%TO.P,ESP32S3,J3_5,GPIO2_J3_5*%
%TO.N,unconnected-(U1-GPIO2-PadJ3_5)*%
X128596000Y-88885000D03*
%TO.P,ESP32S3,J3_6,MTMS/GPIO42_J3_6*%
%TO.N,unconnected-(U1-MTMS{slash}GPIO42-PadJ3_6)*%
X128596000Y-91425000D03*
%TO.P,ESP32S3,J3_7,MTDI/GPIO41_J3_7*%
%TO.N,unconnected-(U1-MTDI{slash}GPIO41-PadJ3_7)*%
X128596000Y-93965000D03*
%TO.P,ESP32S3,J3_8,MTDO/GPIO40_J3_8*%
%TO.N,unconnected-(U1-MTDO{slash}GPIO40-PadJ3_8)*%
X128596000Y-96505000D03*
%TO.P,ESP32S3,J3_9,MTCK/GPIO39_J3_9*%
%TO.N,unconnected-(U1-MTCK{slash}GPIO39-PadJ3_9)*%
X128596000Y-99045000D03*
%TO.P,ESP32S3,J3_10,GPIO38_J3_10*%
%TO.N,unconnected-(U1-GPIO38-PadJ3_10)*%
X128596000Y-101585000D03*
%TO.P,ESP32S3,J3_11,GPIO37_J3_11*%
%TO.N,unconnected-(U1-GPIO37-PadJ3_11)*%
X128596000Y-104125000D03*
%TO.P,ESP32S3,J3_12,GPIO36_J3_12*%
%TO.N,unconnected-(U1-GPIO36-PadJ3_12)*%
X128596000Y-106665000D03*
%TO.P,ESP32S3,J3_13,GPIO35_J3_13*%
%TO.N,unconnected-(U1-GPIO35-PadJ3_13)*%
X128596000Y-109205000D03*
%TO.P,ESP32S3,J3_14,GPIO0_J3_14*%
%TO.N,unconnected-(U1-GPIO0-PadJ3_14)*%
X128596000Y-111745000D03*
%TO.P,ESP32S3,J3_15,GPIO45_J3_15*%
%TO.N,unconnected-(U1-GPIO45-PadJ3_15)*%
X128596000Y-114285000D03*
%TO.P,ESP32S3,J3_16,GPIO48_J3_16*%
%TO.N,unconnected-(U1-GPIO48-PadJ3_16)*%
X128596000Y-116825000D03*
%TO.P,ESP32S3,J3_17,GPIO47_J3_17*%
%TO.N,unconnected-(U1-GPIO47-PadJ3_17)*%
X128596000Y-119365000D03*
%TO.P,ESP32S3,J3_18,GPIO21_J3_18*%
%TO.N,unconnected-(U1-GPIO21-PadJ3_18)*%
X128596000Y-121905000D03*
%TO.P,ESP32S3,J3_19,USB_D+/GPIO20_J3_19*%
%TO.N,unconnected-(U1-USB_D+{slash}GPIO20-PadJ3_19)*%
X128596000Y-124445000D03*
%TO.P,ESP32S3,J3_20,USB_D-/GPIO19_J3_20*%
%TO.N,unconnected-(U1-USB_D-{slash}GPIO19-PadJ3_20)*%
X128596000Y-126985000D03*
%TO.P,ESP32S3,J3_21,GND_J3_21*%
%TO.N,GND*%
X128596000Y-129525000D03*
%TO.P,ESP32S3,J3_22,GND_J3_22*%
X128596000Y-132065000D03*
%TD*%
D14*
%TO.P,330\u03A9,2*%
%TO.N,G7*%
X99500000Y-109420000D03*
%TO.P,330\u03A9,1*%
%TO.N,Net-(D1-RK)*%
X99500000Y-119580000D03*
%TD*%
D15*
%TO.P,LM393,1,AO_1*%
%TO.N,G1*%
X137940000Y-76750000D03*
D16*
%TO.P,LM393,2,DO_2*%
%TO.N,unconnected-(U3-DO-Pad2)*%
X140480000Y-76750000D03*
%TO.P,LM393,3,GND_3*%
%TO.N,GND*%
X143020000Y-76750000D03*
%TO.P,LM393,4,VCC_4*%
%TO.N,3.3V*%
X145560000Y-76750000D03*
%TD*%
D17*
%TO.P,DHT22,1,VDD_1*%
%TO.N,3.3V*%
X136880000Y-95250000D03*
D18*
%TO.P,DHT22,2,SDA_2*%
%TO.N,G8*%
X139420000Y-95250000D03*
%TO.P,DHT22,3,GND_3*%
%TO.N,GND*%
X141960000Y-95250000D03*
%TO.P,DHT22,4,GND_4*%
X144500000Y-95250000D03*
%TD*%
D14*
%TO.P,10k\u03A9,1*%
%TO.N,3.3V*%
X136170000Y-109250000D03*
%TO.P,10k\u03A9,2*%
%TO.N,G8*%
X146330000Y-109250000D03*
%TD*%
%TO.P,330\u03A9,1*%
%TO.N,Net-(D1-BK)*%
X99500000Y-91830000D03*
%TO.P,330\u03A9,2*%
%TO.N,G5*%
X99500000Y-81670000D03*
%TD*%
%TO.P,330\u03A9,1*%
%TO.N,Net-(D1-GK)*%
X99500000Y-105910000D03*
%TO.P,330\u03A9,2*%
%TO.N,G6*%
X99500000Y-95750000D03*
%TD*%
D19*
%TO.N,GND*%
X135750000Y-93250000D03*
X138250000Y-93250000D03*
%TO.N,5V*%
X102750000Y-129500000D03*
X104750000Y-129500000D03*
%TD*%
%TO.N,GND*%
D20*
X138250000Y-93250000D02*
X135750000Y-93250000D01*
%TO.N,5V*%
D21*
X104750000Y-129500000D02*
X102750000Y-129500000D01*
%TO.N,G1*%
D20*
X137940000Y-77001000D02*
X137940000Y-76750000D01*
%TD*%
M02*
